<svg width="507" height="300" viewBox="0 0 507 300" fill="none" xmlns="http://www.w3.org/2000/svg">
<path d="M149.88 48.8959C123.908 62.6704 98.8314 73.9404 68.0826 90.0106C37.3337 106.081 0.912781 126.951 0.0171814 148.239C-0.878418 169.527 33.4528 191.232 52.5589 221.077C71.9635 250.921 76.143 289.323 103.011 297.88C129.879 306.645 179.137 285.775 223.618 279.931C268.099 273.879 307.804 282.644 337.956 275.34C368.406 268.035 389.304 244.66 418.56 220.659C447.517 196.658 484.834 172.24 496.178 143.23C507.522 114.22 492.596 80.8276 464.832 55.157C437.367 29.2778 396.767 11.3292 355.271 4.02459C313.775 -3.28005 271.085 -0.149493 236.753 9.45088C202.124 19.0513 175.554 35.3302 149.88 48.8959Z" fill="#E9FFEA"/>
<g filter="url(#filter0_d_1026_25)">
<rect x="120" y="20" width="360" height="260" rx="25" fill="white" fill-opacity="0.8" shape-rendering="crispEdges"/>
<rect x="150" y="220" width="300" height="30" rx="5" fill="#CFF500"/>
<path d="M277.5 240.098C276.847 240.098 276.259 239.986 275.736 239.762C275.213 239.529 274.803 239.202 274.504 238.782C274.205 238.362 274.056 237.872 274.056 237.312H275.764C275.801 237.732 275.965 238.077 276.254 238.348C276.553 238.619 276.968 238.754 277.5 238.754C278.051 238.754 278.48 238.623 278.788 238.362C279.096 238.091 279.25 237.746 279.25 237.326C279.25 236.999 279.152 236.733 278.956 236.528C278.769 236.323 278.531 236.164 278.242 236.052C277.962 235.94 277.57 235.819 277.066 235.688C276.431 235.52 275.913 235.352 275.512 235.184C275.12 235.007 274.784 234.736 274.504 234.372C274.224 234.008 274.084 233.523 274.084 232.916C274.084 232.356 274.224 231.866 274.504 231.446C274.784 231.026 275.176 230.704 275.68 230.48C276.184 230.256 276.767 230.144 277.43 230.144C278.373 230.144 279.143 230.382 279.74 230.858C280.347 231.325 280.683 231.969 280.748 232.79H278.984C278.956 232.435 278.788 232.132 278.48 231.88C278.172 231.628 277.766 231.502 277.262 231.502C276.805 231.502 276.431 231.619 276.142 231.852C275.853 232.085 275.708 232.421 275.708 232.86C275.708 233.159 275.797 233.406 275.974 233.602C276.161 233.789 276.394 233.938 276.674 234.05C276.954 234.162 277.337 234.283 277.822 234.414C278.466 234.591 278.989 234.769 279.39 234.946C279.801 235.123 280.146 235.399 280.426 235.772C280.715 236.136 280.86 236.626 280.86 237.242C280.86 237.737 280.725 238.203 280.454 238.642C280.193 239.081 279.805 239.435 279.292 239.706C278.788 239.967 278.191 240.098 277.5 240.098ZM283.555 231.264C283.266 231.264 283.023 231.166 282.827 230.97C282.631 230.774 282.533 230.531 282.533 230.242C282.533 229.953 282.631 229.71 282.827 229.514C283.023 229.318 283.266 229.22 283.555 229.22C283.835 229.22 284.073 229.318 284.269 229.514C284.465 229.71 284.563 229.953 284.563 230.242C284.563 230.531 284.465 230.774 284.269 230.97C284.073 231.166 283.835 231.264 283.555 231.264ZM284.339 232.286V240H282.743V232.286H284.339ZM289.543 232.16C290.14 232.16 290.667 232.281 291.125 232.524C291.591 232.757 291.955 233.051 292.217 233.406V232.286H293.827V240.126C293.827 240.835 293.677 241.465 293.379 242.016C293.08 242.576 292.646 243.015 292.077 243.332C291.517 243.649 290.845 243.808 290.061 243.808C289.015 243.808 288.147 243.561 287.457 243.066C286.766 242.581 286.374 241.918 286.281 241.078H287.863C287.984 241.479 288.241 241.801 288.633 242.044C289.034 242.296 289.51 242.422 290.061 242.422C290.705 242.422 291.223 242.226 291.615 241.834C292.016 241.442 292.217 240.873 292.217 240.126V238.838C291.946 239.202 291.577 239.51 291.111 239.762C290.653 240.005 290.131 240.126 289.543 240.126C288.871 240.126 288.255 239.958 287.695 239.622C287.144 239.277 286.705 238.801 286.379 238.194C286.061 237.578 285.903 236.883 285.903 236.108C285.903 235.333 286.061 234.647 286.379 234.05C286.705 233.453 287.144 232.991 287.695 232.664C288.255 232.328 288.871 232.16 289.543 232.16ZM292.217 236.136C292.217 235.604 292.105 235.142 291.881 234.75C291.666 234.358 291.381 234.059 291.027 233.854C290.672 233.649 290.289 233.546 289.879 233.546C289.468 233.546 289.085 233.649 288.731 233.854C288.376 234.05 288.087 234.344 287.863 234.736C287.648 235.119 287.541 235.576 287.541 236.108C287.541 236.64 287.648 237.107 287.863 237.508C288.087 237.909 288.376 238.217 288.731 238.432C289.095 238.637 289.477 238.74 289.879 238.74C290.289 238.74 290.672 238.637 291.027 238.432C291.381 238.227 291.666 237.928 291.881 237.536C292.105 237.135 292.217 236.668 292.217 236.136ZM299.815 232.16C300.422 232.16 300.963 232.286 301.439 232.538C301.924 232.79 302.302 233.163 302.573 233.658C302.844 234.153 302.979 234.75 302.979 235.45V240H301.397V235.688C301.397 234.997 301.224 234.47 300.879 234.106C300.534 233.733 300.062 233.546 299.465 233.546C298.868 233.546 298.392 233.733 298.037 234.106C297.692 234.47 297.519 234.997 297.519 235.688V240H295.923V232.286H297.519V233.168C297.78 232.851 298.112 232.603 298.513 232.426C298.924 232.249 299.358 232.16 299.815 232.16ZM310.234 230.27V236.472C310.234 237.209 310.425 237.765 310.808 238.138C311.2 238.511 311.741 238.698 312.432 238.698C313.132 238.698 313.673 238.511 314.056 238.138C314.448 237.765 314.644 237.209 314.644 236.472V230.27H316.24V236.444C316.24 237.237 316.067 237.909 315.722 238.46C315.376 239.011 314.914 239.421 314.336 239.692C313.757 239.963 313.118 240.098 312.418 240.098C311.718 240.098 311.078 239.963 310.5 239.692C309.93 239.421 309.478 239.011 309.142 238.46C308.806 237.909 308.638 237.237 308.638 236.444V230.27H310.234ZM319.914 233.42C320.184 233.065 320.553 232.767 321.02 232.524C321.486 232.281 322.014 232.16 322.602 232.16C323.274 232.16 323.885 232.328 324.436 232.664C324.996 232.991 325.434 233.453 325.752 234.05C326.069 234.647 326.228 235.333 326.228 236.108C326.228 236.883 326.069 237.578 325.752 238.194C325.434 238.801 324.996 239.277 324.436 239.622C323.885 239.958 323.274 240.126 322.602 240.126C322.014 240.126 321.491 240.009 321.034 239.776C320.576 239.533 320.203 239.235 319.914 238.88V243.668H318.318V232.286H319.914V233.42ZM324.604 236.108C324.604 235.576 324.492 235.119 324.268 234.736C324.053 234.344 323.764 234.05 323.4 233.854C323.045 233.649 322.662 233.546 322.252 233.546C321.85 233.546 321.468 233.649 321.104 233.854C320.749 234.059 320.46 234.358 320.236 234.75C320.021 235.142 319.914 235.604 319.914 236.136C319.914 236.668 320.021 237.135 320.236 237.536C320.46 237.928 320.749 238.227 321.104 238.432C321.468 238.637 321.85 238.74 322.252 238.74C322.662 238.74 323.045 238.637 323.4 238.432C323.764 238.217 324.053 237.909 324.268 237.508C324.492 237.107 324.604 236.64 324.604 236.108Z" fill="black"/>
<rect x="150" y="163" width="300" height="30" rx="5" fill="#EAEAEA"/>
<rect x="150" y="146" width="100" height="12" rx="3" fill="#EAEAEA"/>
<rect x="150" y="101" width="300" height="30" rx="5" fill="#EAEAEA"/>
<rect x="150" y="84" width="100" height="12" rx="3" fill="#EAEAEA"/>
<path d="M220.934 57C220.934 55.6267 221.241 54.4 221.854 53.32C222.481 52.2267 223.328 51.38 224.394 50.78C225.474 50.1667 226.681 49.86 228.014 49.86C229.574 49.86 230.941 50.26 232.114 51.06C233.288 51.86 234.108 52.9667 234.574 54.38H231.354C231.034 53.7133 230.581 53.2133 229.994 52.88C229.421 52.5467 228.754 52.38 227.994 52.38C227.181 52.38 226.454 52.5733 225.814 52.96C225.188 53.3333 224.694 53.8667 224.334 54.56C223.988 55.2533 223.814 56.0667 223.814 57C223.814 57.92 223.988 58.7333 224.334 59.44C224.694 60.1333 225.188 60.6733 225.814 61.06C226.454 61.4333 227.181 61.62 227.994 61.62C228.754 61.62 229.421 61.4533 229.994 61.12C230.581 60.7733 231.034 60.2667 231.354 59.6H234.574C234.108 61.0267 233.288 62.14 232.114 62.94C230.954 63.7267 229.588 64.12 228.014 64.12C226.681 64.12 225.474 63.82 224.394 63.22C223.328 62.6067 222.481 61.76 221.854 60.68C221.241 59.6 220.934 58.3733 220.934 57ZM239.766 54.64C240.126 54.0533 240.593 53.5933 241.166 53.26C241.753 52.9267 242.419 52.76 243.166 52.76V55.7H242.426C241.546 55.7 240.879 55.9067 240.426 56.32C239.986 56.7333 239.766 57.4533 239.766 58.48V64H236.966V52.92H239.766V54.64ZM255.352 58.22C255.352 58.62 255.325 58.98 255.272 59.3H247.172C247.239 60.1 247.519 60.7267 248.012 61.18C248.505 61.6333 249.112 61.86 249.832 61.86C250.872 61.86 251.612 61.4133 252.052 60.52H255.072C254.752 61.5867 254.139 62.4667 253.232 63.16C252.325 63.84 251.212 64.18 249.892 64.18C248.825 64.18 247.865 63.9467 247.012 63.48C246.172 63 245.512 62.3267 245.032 61.46C244.565 60.5933 244.332 59.5933 244.332 58.46C244.332 57.3133 244.565 56.3067 245.032 55.44C245.499 54.5733 246.152 53.9067 246.992 53.44C247.832 52.9733 248.799 52.74 249.892 52.74C250.945 52.74 251.885 52.9667 252.712 53.42C253.552 53.8733 254.199 54.52 254.652 55.36C255.119 56.1867 255.352 57.14 255.352 58.22ZM252.452 57.42C252.439 56.7 252.179 56.1267 251.672 55.7C251.165 55.26 250.545 55.04 249.812 55.04C249.119 55.04 248.532 55.2533 248.052 55.68C247.585 56.0933 247.299 56.6733 247.192 57.42H252.452ZM256.676 58.42C256.676 57.3 256.896 56.3067 257.336 55.44C257.789 54.5733 258.396 53.9067 259.156 53.44C259.929 52.9733 260.789 52.74 261.736 52.74C262.562 52.74 263.282 52.9067 263.896 53.24C264.522 53.5733 265.022 53.9933 265.396 54.5V52.92H268.216V64H265.396V62.38C265.036 62.9 264.536 63.3333 263.896 63.68C263.269 64.0133 262.542 64.18 261.716 64.18C260.782 64.18 259.929 63.94 259.156 63.46C258.396 62.98 257.789 62.3067 257.336 61.44C256.896 60.56 256.676 59.5533 256.676 58.42ZM265.396 58.46C265.396 57.78 265.262 57.2 264.996 56.72C264.729 56.2267 264.369 55.8533 263.916 55.6C263.462 55.3333 262.976 55.2 262.456 55.2C261.936 55.2 261.456 55.3267 261.016 55.58C260.576 55.8333 260.216 56.2067 259.936 56.7C259.669 57.18 259.536 57.7533 259.536 58.42C259.536 59.0867 259.669 59.6733 259.936 60.18C260.216 60.6733 260.576 61.0533 261.016 61.32C261.469 61.5867 261.949 61.72 262.456 61.72C262.976 61.72 263.462 61.5933 263.916 61.34C264.369 61.0733 264.729 60.7 264.996 60.22C265.262 59.7267 265.396 59.14 265.396 58.46ZM274.21 55.22V60.58C274.21 60.9533 274.297 61.2267 274.47 61.4C274.657 61.56 274.964 61.64 275.39 61.64H276.69V64H274.93C272.57 64 271.39 62.8533 271.39 60.56V55.22H270.07V52.92H271.39V50.18H274.21V52.92H276.69V55.22H274.21ZM289.004 58.22C289.004 58.62 288.978 58.98 288.924 59.3H280.824C280.891 60.1 281.171 60.7267 281.664 61.18C282.158 61.6333 282.764 61.86 283.484 61.86C284.524 61.86 285.264 61.4133 285.704 60.52H288.724C288.404 61.5867 287.791 62.4667 286.884 63.16C285.978 63.84 284.864 64.18 283.544 64.18C282.478 64.18 281.518 63.9467 280.664 63.48C279.824 63 279.164 62.3267 278.684 61.46C278.218 60.5933 277.984 59.5933 277.984 58.46C277.984 57.3133 278.218 56.3067 278.684 55.44C279.151 54.5733 279.804 53.9067 280.644 53.44C281.484 52.9733 282.451 52.74 283.544 52.74C284.598 52.74 285.538 52.9667 286.364 53.42C287.204 53.8733 287.851 54.52 288.304 55.36C288.771 56.1867 289.004 57.14 289.004 58.22ZM286.104 57.42C286.091 56.7 285.831 56.1267 285.324 55.7C284.818 55.26 284.198 55.04 283.464 55.04C282.771 55.04 282.184 55.2533 281.704 55.68C281.238 56.0933 280.951 56.6733 280.844 57.42H286.104ZM304.374 61.34H298.814L297.894 64H294.954L299.974 50.02H303.234L308.254 64H305.294L304.374 61.34ZM303.614 59.1L301.594 53.26L299.574 59.1H303.614ZM309.41 58.46C309.41 57.3133 309.643 56.3133 310.11 55.46C310.577 54.5933 311.223 53.9267 312.05 53.46C312.877 52.98 313.823 52.74 314.89 52.74C316.263 52.74 317.397 53.0867 318.29 53.78C319.197 54.46 319.803 55.42 320.11 56.66H317.09C316.93 56.18 316.657 55.8067 316.27 55.54C315.897 55.26 315.43 55.12 314.87 55.12C314.07 55.12 313.437 55.4133 312.97 56C312.503 56.5733 312.27 57.3933 312.27 58.46C312.27 59.5133 312.503 60.3333 312.97 60.92C313.437 61.4933 314.07 61.78 314.87 61.78C316.003 61.78 316.743 61.2733 317.09 60.26H320.11C319.803 61.46 319.197 62.4133 318.29 63.12C317.383 63.8267 316.25 64.18 314.89 64.18C313.823 64.18 312.877 63.9467 312.05 63.48C311.223 63 310.577 62.3333 310.11 61.48C309.643 60.6133 309.41 59.6067 309.41 58.46ZM321.441 58.46C321.441 57.3133 321.675 56.3133 322.141 55.46C322.608 54.5933 323.255 53.9267 324.081 53.46C324.908 52.98 325.855 52.74 326.921 52.74C328.295 52.74 329.428 53.0867 330.321 53.78C331.228 54.46 331.835 55.42 332.141 56.66H329.121C328.961 56.18 328.688 55.8067 328.301 55.54C327.928 55.26 327.461 55.12 326.901 55.12C326.101 55.12 325.468 55.4133 325.001 56C324.535 56.5733 324.301 57.3933 324.301 58.46C324.301 59.5133 324.535 60.3333 325.001 60.92C325.468 61.4933 326.101 61.78 326.901 61.78C328.035 61.78 328.775 61.2733 329.121 60.26H332.141C331.835 61.46 331.228 62.4133 330.321 63.12C329.415 63.8267 328.281 64.18 326.921 64.18C325.855 64.18 324.908 63.9467 324.081 63.48C323.255 63 322.608 62.3333 322.141 61.48C321.675 60.6133 321.441 59.6067 321.441 58.46ZM339.113 64.18C338.046 64.18 337.086 63.9467 336.233 63.48C335.379 63 334.706 62.3267 334.213 61.46C333.733 60.5933 333.493 59.5933 333.493 58.46C333.493 57.3267 333.739 56.3267 334.233 55.46C334.739 54.5933 335.426 53.9267 336.293 53.46C337.159 52.98 338.126 52.74 339.193 52.74C340.259 52.74 341.226 52.98 342.093 53.46C342.959 53.9267 343.639 54.5933 344.133 55.46C344.639 56.3267 344.893 57.3267 344.893 58.46C344.893 59.5933 344.633 60.5933 344.112 61.46C343.606 62.3267 342.913 63 342.033 63.48C341.166 63.9467 340.193 64.18 339.113 64.18ZM339.113 61.74C339.619 61.74 340.093 61.62 340.533 61.38C340.986 61.1267 341.346 60.7533 341.613 60.26C341.879 59.7667 342.013 59.1667 342.013 58.46C342.013 57.4067 341.733 56.6 341.173 56.04C340.626 55.4667 339.953 55.18 339.153 55.18C338.353 55.18 337.679 55.4667 337.133 56.04C336.599 56.6 336.333 57.4067 336.333 58.46C336.333 59.5133 336.593 60.3267 337.113 60.9C337.646 61.46 338.313 61.74 339.113 61.74ZM357.406 52.92V64H354.586V62.6C354.226 63.08 353.753 63.46 353.166 63.74C352.593 64.0067 351.966 64.14 351.286 64.14C350.42 64.14 349.653 63.96 348.986 63.6C348.32 63.2267 347.793 62.6867 347.406 61.98C347.033 61.26 346.846 60.4067 346.846 59.42V52.92H349.646V59.02C349.646 59.9 349.866 60.58 350.306 61.06C350.746 61.5267 351.346 61.76 352.106 61.76C352.88 61.76 353.486 61.5267 353.926 61.06C354.366 60.58 354.586 59.9 354.586 59.02V52.92H357.406ZM366.309 52.76C367.629 52.76 368.696 53.18 369.509 54.02C370.322 54.8467 370.729 56.0067 370.729 57.5V64H367.929V57.88C367.929 57 367.709 56.3267 367.269 55.86C366.829 55.38 366.229 55.14 365.469 55.14C364.696 55.14 364.082 55.38 363.629 55.86C363.189 56.3267 362.969 57 362.969 57.88V64H360.169V52.92H362.969V54.3C363.342 53.82 363.816 53.4467 364.389 53.18C364.976 52.9 365.616 52.76 366.309 52.76ZM376.652 55.22V60.58C376.652 60.9533 376.738 61.2267 376.912 61.4C377.098 61.56 377.405 61.64 377.832 61.64H379.132V64H377.372C375.012 64 373.832 62.8533 373.832 60.56V55.22H372.512V52.92H373.832V50.18H376.652V52.92H379.132V55.22H376.652Z" fill="black"/>
</g>
<path d="M10.4606 92C10.4606 80.992 12.5726 72.32 16.7966 65.984C21.0846 59.648 27.9646 56.48 37.4366 56.48C46.9086 56.48 53.7566 59.648 57.9806 65.984C62.2686 72.32 64.4126 80.992 64.4126 92C64.4126 103.136 62.2686 111.872 57.9806 118.208C53.7566 124.544 46.9086 127.712 37.4366 127.712C27.9646 127.712 21.0846 124.544 16.7966 118.208C12.5726 111.872 10.4606 103.136 10.4606 92ZM48.2846 92C48.2846 85.536 47.5806 80.576 46.1726 77.12C44.7646 73.6 41.8526 71.84 37.4366 71.84C33.0206 71.84 30.1086 73.6 28.7006 77.12C27.2926 80.576 26.5886 85.536 26.5886 92C26.5886 96.352 26.8446 99.968 27.3566 102.848C27.8686 105.664 28.8926 107.968 30.4286 109.76C32.0286 111.488 34.3646 112.352 37.4366 112.352C40.5086 112.352 42.8126 111.488 44.3486 109.76C45.9486 107.968 47.0046 105.664 47.5166 102.848C48.0286 99.968 48.2846 96.352 48.2846 92ZM71.3576 73.184V57.92H97.9496V128H80.8616V73.184H71.3576Z" fill="black" fill-opacity="0.3"/>
<defs>
<filter id="filter0_d_1026_25" x="97" y="0" width="410" height="310" filterUnits="userSpaceOnUse" color-interpolation-filters="sRGB">
<feFlood flood-opacity="0" result="BackgroundImageFix"/>
<feColorMatrix in="SourceAlpha" type="matrix" values="0 0 0 0 0 0 0 0 0 0 0 0 0 0 0 0 0 0 127 0" result="hardAlpha"/>
<feMorphology radius="5" operator="dilate" in="SourceAlpha" result="effect1_dropShadow_1026_25"/>
<feOffset dx="2" dy="5"/>
<feGaussianBlur stdDeviation="10"/>
<feComposite in2="hardAlpha" operator="out"/>
<feColorMatrix type="matrix" values="0 0 0 0 0 0 0 0 0 0 0 0 0 0 0 0 0 0 0.1 0"/>
<feBlend mode="normal" in2="BackgroundImageFix" result="effect1_dropShadow_1026_25"/>
<feBlend mode="normal" in="SourceGraphic" in2="effect1_dropShadow_1026_25" result="shape"/>
</filter>
</defs>
</svg>
