<svg width="519" height="300" viewBox="0 0 519 300" fill="none" xmlns="http://www.w3.org/2000/svg">
<path d="M370.071 57.7292C411.954 74.8303 463.183 79.0146 484.644 93.7507C506.451 108.487 498.49 133.957 498.836 159.426C499.182 184.896 508.182 210.548 486.721 225.466C464.914 240.202 413.339 244.386 371.109 252.937C328.88 261.305 296.343 274.222 251.69 284.956C207.038 295.871 150.616 304.604 104.233 297.327C57.8501 290.232 21.8512 266.763 8.00545 241.111C-5.84027 215.46 2.46718 187.261 18.7359 164.156C35.0046 141.052 58.8885 122.677 75.5033 99.3904C91.7721 76.1038 101.118 47.9051 131.232 27.3474C161.347 6.97157 212.23 -5.76331 254.113 2.60532C295.996 11.1559 328.534 40.81 370.071 57.7292Z" fill="#DEF6FF"/>
<g filter="url(#filter0_d_1026_67)">
<rect x="132" y="20" width="360" height="260" rx="25" fill="white" fill-opacity="0.8" shape-rendering="crispEdges"/>
<rect x="162.5" y="138.5" width="299" height="29" rx="4.5" stroke="#EAEAEA"/>
<rect x="170" y="148" width="200" height="10" rx="3" fill="#EAEAEA"/>
<rect x="421" y="146" width="33" height="14" rx="3" fill="#EAEAEA"/>
<path d="M429.709 152.906C429.709 152.498 429.803 152.132 429.991 151.808C430.183 151.484 430.441 151.232 430.765 151.052C431.093 150.868 431.451 150.776 431.839 150.776C432.283 150.776 432.677 150.886 433.021 151.106C433.369 151.322 433.621 151.63 433.777 152.03H432.955C432.847 151.81 432.697 151.646 432.505 151.538C432.313 151.43 432.091 151.376 431.839 151.376C431.563 151.376 431.317 151.438 431.101 151.562C430.885 151.686 430.715 151.864 430.591 152.096C430.471 152.328 430.411 152.598 430.411 152.906C430.411 153.214 430.471 153.484 430.591 153.716C430.715 153.948 430.885 154.128 431.101 154.256C431.317 154.38 431.563 154.442 431.839 154.442C432.091 154.442 432.313 154.388 432.505 154.28C432.697 154.172 432.847 154.008 432.955 153.788H433.777C433.621 154.188 433.369 154.496 433.021 154.712C432.677 154.928 432.283 155.036 431.839 155.036C431.447 155.036 431.089 154.946 430.765 154.766C430.441 154.582 430.183 154.328 429.991 154.004C429.803 153.68 429.709 153.314 429.709 152.906ZM436.012 155.054C435.7 155.054 435.418 154.984 435.166 154.844C434.914 154.7 434.716 154.5 434.572 154.244C434.428 153.984 434.356 153.684 434.356 153.344C434.356 153.008 434.43 152.71 434.578 152.45C434.726 152.19 434.928 151.99 435.184 151.85C435.44 151.71 435.726 151.64 436.042 151.64C436.358 151.64 436.644 151.71 436.9 151.85C437.156 151.99 437.358 152.19 437.506 152.45C437.654 152.71 437.728 153.008 437.728 153.344C437.728 153.68 437.652 153.978 437.5 154.238C437.348 154.498 437.14 154.7 436.876 154.844C436.616 154.984 436.328 155.054 436.012 155.054ZM436.012 154.46C436.188 154.46 436.352 154.418 436.504 154.334C436.66 154.25 436.786 154.124 436.882 153.956C436.978 153.788 437.026 153.584 437.026 153.344C437.026 153.104 436.98 152.902 436.888 152.738C436.796 152.57 436.674 152.444 436.522 152.36C436.37 152.276 436.206 152.234 436.03 152.234C435.854 152.234 435.69 152.276 435.538 152.36C435.39 152.444 435.272 152.57 435.184 152.738C435.096 152.902 435.052 153.104 435.052 153.344C435.052 153.7 435.142 153.976 435.322 154.172C435.506 154.364 435.736 154.46 436.012 154.46ZM439.088 152.18C439.204 152.028 439.362 151.9 439.562 151.796C439.762 151.692 439.988 151.64 440.24 151.64C440.528 151.64 440.79 151.712 441.026 151.856C441.266 151.996 441.454 152.194 441.59 152.45C441.726 152.706 441.794 153 441.794 153.332C441.794 153.664 441.726 153.962 441.59 154.226C441.454 154.486 441.266 154.69 441.026 154.838C440.79 154.982 440.528 155.054 440.24 155.054C439.988 155.054 439.764 155.004 439.568 154.904C439.372 154.8 439.212 154.672 439.088 154.52V156.572H438.404V151.694H439.088V152.18ZM441.098 153.332C441.098 153.104 441.05 152.908 440.954 152.744C440.862 152.576 440.738 152.45 440.582 152.366C440.43 152.278 440.266 152.234 440.09 152.234C439.918 152.234 439.754 152.278 439.598 152.366C439.446 152.454 439.322 152.582 439.226 152.75C439.134 152.918 439.088 153.116 439.088 153.344C439.088 153.572 439.134 153.772 439.226 153.944C439.322 154.112 439.446 154.24 439.598 154.328C439.754 154.416 439.918 154.46 440.09 154.46C440.266 154.46 440.43 154.416 440.582 154.328C440.738 154.236 440.862 154.104 440.954 153.932C441.05 153.76 441.098 153.56 441.098 153.332ZM445.447 151.694L443.419 156.554H442.711L443.383 154.946L442.081 151.694H442.843L443.773 154.214L444.739 151.694H445.447Z" fill="black"/>
<path d="M162 123H462" stroke="#EAEAEA"/>
<rect x="162" y="101" width="250" height="12" rx="3" fill="#EAEAEA"/>
<rect x="162" y="84" width="300" height="12" rx="3" fill="#EAEAEA"/>
<path d="M210.368 64.14C209.395 64.14 208.515 63.9733 207.728 63.64C206.955 63.3067 206.341 62.8267 205.888 62.2C205.435 61.5733 205.201 60.8333 205.188 59.98H208.188C208.228 60.5533 208.428 61.0067 208.788 61.34C209.161 61.6733 209.668 61.84 210.308 61.84C210.961 61.84 211.475 61.6867 211.848 61.38C212.221 61.06 212.408 60.6467 212.408 60.14C212.408 59.7267 212.281 59.3867 212.028 59.12C211.775 58.8533 211.455 58.6467 211.068 58.5C210.695 58.34 210.175 58.1667 209.508 57.98C208.601 57.7133 207.861 57.4533 207.288 57.2C206.728 56.9333 206.241 56.54 205.828 56.02C205.428 55.4867 205.228 54.78 205.228 53.9C205.228 53.0733 205.435 52.3533 205.848 51.74C206.261 51.1267 206.841 50.66 207.588 50.34C208.335 50.0067 209.188 49.84 210.148 49.84C211.588 49.84 212.755 50.1933 213.648 50.9C214.555 51.5933 215.055 52.5667 215.148 53.82H212.068C212.041 53.34 211.835 52.9467 211.448 52.64C211.075 52.32 210.575 52.16 209.948 52.16C209.401 52.16 208.961 52.3 208.628 52.58C208.308 52.86 208.148 53.2667 208.148 53.8C208.148 54.1733 208.268 54.4867 208.508 54.74C208.761 54.98 209.068 55.18 209.428 55.34C209.801 55.4867 210.321 55.66 210.988 55.86C211.895 56.1267 212.635 56.3933 213.208 56.66C213.781 56.9267 214.275 57.3267 214.688 57.86C215.101 58.3933 215.308 59.0933 215.308 59.96C215.308 60.7067 215.115 61.4 214.728 62.04C214.341 62.68 213.775 63.1933 213.028 63.58C212.281 63.9533 211.395 64.14 210.368 64.14ZM223.975 52.76C224.815 52.76 225.562 52.9467 226.215 53.32C226.869 53.68 227.375 54.22 227.735 54.94C228.109 55.6467 228.295 56.5 228.295 57.5V64H225.495V57.88C225.495 57 225.275 56.3267 224.835 55.86C224.395 55.38 223.795 55.14 223.035 55.14C222.262 55.14 221.649 55.38 221.195 55.86C220.755 56.3267 220.535 57 220.535 57.88V64H217.735V49.2H220.535V54.3C220.895 53.82 221.375 53.4467 221.975 53.18C222.575 52.9 223.242 52.76 223.975 52.76ZM230.238 58.42C230.238 57.3 230.458 56.3067 230.898 55.44C231.351 54.5733 231.958 53.9067 232.718 53.44C233.491 52.9733 234.351 52.74 235.298 52.74C236.125 52.74 236.845 52.9067 237.458 53.24C238.085 53.5733 238.585 53.9933 238.958 54.5V52.92H241.778V64H238.958V62.38C238.598 62.9 238.098 63.3333 237.458 63.68C236.831 64.0133 236.105 64.18 235.278 64.18C234.345 64.18 233.491 63.94 232.718 63.46C231.958 62.98 231.351 62.3067 230.898 61.44C230.458 60.56 230.238 59.5533 230.238 58.42ZM238.958 58.46C238.958 57.78 238.825 57.2 238.558 56.72C238.291 56.2267 237.931 55.8533 237.478 55.6C237.025 55.3333 236.538 55.2 236.018 55.2C235.498 55.2 235.018 55.3267 234.578 55.58C234.138 55.8333 233.778 56.2067 233.498 56.7C233.231 57.18 233.098 57.7533 233.098 58.42C233.098 59.0867 233.231 59.6733 233.498 60.18C233.778 60.6733 234.138 61.0533 234.578 61.32C235.031 61.5867 235.511 61.72 236.018 61.72C236.538 61.72 237.025 61.5933 237.478 61.34C237.931 61.0733 238.291 60.7 238.558 60.22C238.825 59.7267 238.958 59.14 238.958 58.46ZM247.313 54.64C247.673 54.0533 248.139 53.5933 248.713 53.26C249.299 52.9267 249.966 52.76 250.713 52.76V55.7H249.973C249.093 55.7 248.426 55.9067 247.973 56.32C247.533 56.7333 247.313 57.4533 247.313 58.48V64H244.513V52.92H247.313V54.64ZM262.899 58.22C262.899 58.62 262.872 58.98 262.819 59.3H254.719C254.785 60.1 255.065 60.7267 255.559 61.18C256.052 61.6333 256.659 61.86 257.379 61.86C258.419 61.86 259.159 61.4133 259.599 60.52H262.619C262.299 61.5867 261.685 62.4667 260.779 63.16C259.872 63.84 258.759 64.18 257.439 64.18C256.372 64.18 255.412 63.9467 254.559 63.48C253.719 63 253.059 62.3267 252.579 61.46C252.112 60.5933 251.879 59.5933 251.879 58.46C251.879 57.3133 252.112 56.3067 252.579 55.44C253.045 54.5733 253.699 53.9067 254.539 53.44C255.379 52.9733 256.345 52.74 257.439 52.74C258.492 52.74 259.432 52.9667 260.259 53.42C261.099 53.8733 261.745 54.52 262.199 55.36C262.665 56.1867 262.899 57.14 262.899 58.22ZM259.999 57.42C259.985 56.7 259.725 56.1267 259.219 55.7C258.712 55.26 258.092 55.04 257.359 55.04C256.665 55.04 256.079 55.2533 255.599 55.68C255.132 56.0933 254.845 56.6733 254.739 57.42H259.999ZM280.308 52.92L273.448 69.24H270.468L272.868 63.72L268.428 52.92H271.568L274.428 60.66L277.328 52.92H280.308ZM286.738 64.18C285.671 64.18 284.711 63.9467 283.858 63.48C283.004 63 282.331 62.3267 281.838 61.46C281.358 60.5933 281.118 59.5933 281.118 58.46C281.118 57.3267 281.364 56.3267 281.858 55.46C282.364 54.5933 283.051 53.9267 283.918 53.46C284.784 52.98 285.751 52.74 286.818 52.74C287.884 52.74 288.851 52.98 289.718 53.46C290.584 53.9267 291.264 54.5933 291.758 55.46C292.264 56.3267 292.518 57.3267 292.518 58.46C292.518 59.5933 292.258 60.5933 291.737 61.46C291.231 62.3267 290.538 63 289.658 63.48C288.791 63.9467 287.818 64.18 286.738 64.18ZM286.738 61.74C287.244 61.74 287.718 61.62 288.158 61.38C288.611 61.1267 288.971 60.7533 289.238 60.26C289.504 59.7667 289.638 59.1667 289.638 58.46C289.638 57.4067 289.358 56.6 288.798 56.04C288.251 55.4667 287.578 55.18 286.778 55.18C285.978 55.18 285.304 55.4667 284.758 56.04C284.224 56.6 283.958 57.4067 283.958 58.46C283.958 59.5133 284.218 60.3267 284.738 60.9C285.271 61.46 285.938 61.74 286.738 61.74ZM305.031 52.92V64H302.211V62.6C301.851 63.08 301.378 63.46 300.791 63.74C300.218 64.0067 299.591 64.14 298.911 64.14C298.045 64.14 297.278 63.96 296.611 63.6C295.945 63.2267 295.418 62.6867 295.031 61.98C294.658 61.26 294.471 60.4067 294.471 59.42V52.92H297.271V59.02C297.271 59.9 297.491 60.58 297.931 61.06C298.371 61.5267 298.971 61.76 299.731 61.76C300.505 61.76 301.111 61.5267 301.551 61.06C301.991 60.58 302.211 59.9 302.211 59.02V52.92H305.031ZM310.594 54.64C310.954 54.0533 311.421 53.5933 311.994 53.26C312.581 52.9267 313.247 52.76 313.994 52.76V55.7H313.254C312.374 55.7 311.707 55.9067 311.254 56.32C310.814 56.7333 310.594 57.4533 310.594 58.48V64H307.794V52.92H310.594V54.64ZM323.446 61.78H328.046V64H320.646V50.04H323.446V61.78ZM331.245 51.6C330.752 51.6 330.339 51.4467 330.005 51.14C329.685 50.82 329.525 50.4267 329.525 49.96C329.525 49.4933 329.685 49.1067 330.005 48.8C330.339 48.48 330.752 48.32 331.245 48.32C331.739 48.32 332.145 48.48 332.465 48.8C332.799 49.1067 332.965 49.4933 332.965 49.96C332.965 50.4267 332.799 50.82 332.465 51.14C332.145 51.4467 331.739 51.6 331.245 51.6ZM332.625 52.92V64H329.825V52.92H332.625ZM341.532 52.76C342.852 52.76 343.918 53.18 344.732 54.02C345.545 54.8467 345.952 56.0067 345.952 57.5V64H343.152V57.88C343.152 57 342.932 56.3267 342.492 55.86C342.052 55.38 341.452 55.14 340.692 55.14C339.918 55.14 339.305 55.38 338.852 55.86C338.412 56.3267 338.192 57 338.192 57.88V64H335.392V52.92H338.192V54.3C338.565 53.82 339.038 53.4467 339.612 53.18C340.198 52.9 340.838 52.76 341.532 52.76ZM355.174 64L351.414 59.28V64H348.614V49.2H351.414V57.62L355.134 52.92H358.774L353.894 58.48L358.814 64H355.174ZM359.614 57C359.614 55.6267 359.921 54.4 360.534 53.32C361.161 52.2267 362.007 51.38 363.074 50.78C364.154 50.1667 365.361 49.86 366.694 49.86C368.254 49.86 369.621 50.26 370.794 51.06C371.967 51.86 372.787 52.9667 373.254 54.38H370.034C369.714 53.7133 369.261 53.2133 368.674 52.88C368.101 52.5467 367.434 52.38 366.674 52.38C365.861 52.38 365.134 52.5733 364.494 52.96C363.867 53.3333 363.374 53.8667 363.014 54.56C362.667 55.2533 362.494 56.0667 362.494 57C362.494 57.92 362.667 58.7333 363.014 59.44C363.374 60.1333 363.867 60.6733 364.494 61.06C365.134 61.4333 365.861 61.62 366.674 61.62C367.434 61.62 368.101 61.4533 368.674 61.12C369.261 60.7733 369.714 60.2667 370.034 59.6H373.254C372.787 61.0267 371.967 62.14 370.794 62.94C369.634 63.7267 368.267 64.12 366.694 64.12C365.361 64.12 364.154 63.82 363.074 63.22C362.007 62.6067 361.161 61.76 360.534 60.68C359.921 59.6 359.614 58.3733 359.614 57ZM381.886 52.76C382.726 52.76 383.472 52.9467 384.126 53.32C384.779 53.68 385.286 54.22 385.646 54.94C386.019 55.6467 386.206 56.5 386.206 57.5V64H383.406V57.88C383.406 57 383.186 56.3267 382.746 55.86C382.306 55.38 381.706 55.14 380.946 55.14C380.172 55.14 379.559 55.38 379.106 55.86C378.666 56.3267 378.446 57 378.446 57.88V64H375.646V49.2H378.446V54.3C378.806 53.82 379.286 53.4467 379.886 53.18C380.486 52.9 381.152 52.76 381.886 52.76ZM388.148 58.42C388.148 57.3 388.368 56.3067 388.808 55.44C389.262 54.5733 389.868 53.9067 390.628 53.44C391.402 52.9733 392.262 52.74 393.208 52.74C394.035 52.74 394.755 52.9067 395.368 53.24C395.995 53.5733 396.495 53.9933 396.868 54.5V52.92H399.688V64H396.868V62.38C396.508 62.9 396.008 63.3333 395.368 63.68C394.742 64.0133 394.015 64.18 393.188 64.18C392.255 64.18 391.402 63.94 390.628 63.46C389.868 62.98 389.262 62.3067 388.808 61.44C388.368 60.56 388.148 59.5533 388.148 58.42ZM396.868 58.46C396.868 57.78 396.735 57.2 396.468 56.72C396.202 56.2267 395.842 55.8533 395.388 55.6C394.935 55.3333 394.448 55.2 393.928 55.2C393.408 55.2 392.928 55.3267 392.488 55.58C392.048 55.8333 391.688 56.2067 391.408 56.7C391.142 57.18 391.008 57.7533 391.008 58.42C391.008 59.0867 391.142 59.6733 391.408 60.18C391.688 60.6733 392.048 61.0533 392.488 61.32C392.942 61.5867 393.422 61.72 393.928 61.72C394.448 61.72 394.935 61.5933 395.388 61.34C395.842 61.0733 396.202 60.7 396.468 60.22C396.735 59.7267 396.868 59.14 396.868 58.46ZM403.843 51.6C403.35 51.6 402.936 51.4467 402.603 51.14C402.283 50.82 402.123 50.4267 402.123 49.96C402.123 49.4933 402.283 49.1067 402.603 48.8C402.936 48.48 403.35 48.32 403.843 48.32C404.336 48.32 404.743 48.48 405.063 48.8C405.396 49.1067 405.563 49.4933 405.563 49.96C405.563 50.4267 405.396 50.82 405.063 51.14C404.743 51.4467 404.336 51.6 403.843 51.6ZM405.223 52.92V64H402.423V52.92H405.223ZM414.129 52.76C415.449 52.76 416.516 53.18 417.329 54.02C418.143 54.8467 418.549 56.0067 418.549 57.5V64H415.749V57.88C415.749 57 415.529 56.3267 415.089 55.86C414.649 55.38 414.049 55.14 413.289 55.14C412.516 55.14 411.903 55.38 411.449 55.86C411.009 56.3267 410.789 57 410.789 57.88V64H407.989V52.92H410.789V54.3C411.163 53.82 411.636 53.4467 412.209 53.18C412.796 52.9 413.436 52.76 414.129 52.76Z" fill="black"/>
<rect x="170" y="186" width="14" height="14" rx="3" fill="#EAEAEA"/>
<rect x="192" y="188" width="80" height="10" rx="3" fill="#EAEAEA"/>
<path d="M445.25 196.5L448.75 193L445.25 189.5" stroke="#909090" stroke-linecap="round" stroke-linejoin="round"/>
<rect x="170" y="221" width="14" height="14" rx="3" fill="#EAEAEA"/>
<rect x="192" y="223" width="80" height="10" rx="3" fill="#EAEAEA"/>
<path d="M445.25 231.5L448.75 228L445.25 224.5" stroke="#909090" stroke-linecap="round" stroke-linejoin="round"/>
</g>
<path d="M0.445 92C0.445 80.992 2.557 72.32 6.781 65.984C11.069 59.648 17.949 56.48 27.421 56.48C36.893 56.48 43.741 59.648 47.965 65.984C52.253 72.32 54.397 80.992 54.397 92C54.397 103.136 52.253 111.872 47.965 118.208C43.741 124.544 36.893 127.712 27.421 127.712C17.949 127.712 11.069 124.544 6.781 118.208C2.557 111.872 0.445 103.136 0.445 92ZM38.269 92C38.269 85.536 37.565 80.576 36.157 77.12C34.749 73.6 31.837 71.84 27.421 71.84C23.005 71.84 20.093 73.6 18.685 77.12C17.277 80.576 16.573 85.536 16.573 92C16.573 96.352 16.829 99.968 17.341 102.848C17.853 105.664 18.877 107.968 20.413 109.76C22.013 111.488 24.349 112.352 27.421 112.352C30.493 112.352 32.797 111.488 34.333 109.76C35.933 107.968 36.989 105.664 37.501 102.848C38.013 99.968 38.269 96.352 38.269 92ZM63.646 77.696C63.902 70.848 66.142 65.568 70.366 61.856C74.59 58.144 80.318 56.288 87.55 56.288C92.35 56.288 96.446 57.12 99.838 58.784C103.294 60.448 105.886 62.72 107.614 65.6C109.406 68.48 110.302 71.712 110.302 75.296C110.302 79.52 109.246 82.976 107.134 85.664C105.022 88.288 102.558 90.08 99.742 91.04V91.424C103.39 92.64 106.27 94.656 108.382 97.472C110.494 100.288 111.55 103.904 111.55 108.32C111.55 112.288 110.622 115.808 108.766 118.88C106.974 121.888 104.318 124.256 100.798 125.984C97.342 127.712 93.214 128.576 88.414 128.576C80.734 128.576 74.59 126.688 69.982 122.912C65.438 119.136 63.038 113.44 62.782 105.824H78.718C78.782 108.64 79.582 110.88 81.118 112.544C82.654 114.144 84.894 114.944 87.838 114.944C90.334 114.944 92.254 114.24 93.598 112.832C95.006 111.36 95.71 109.44 95.71 107.072C95.71 104 94.718 101.792 92.734 100.448C90.814 99.04 87.71 98.336 83.422 98.336H80.35V84.992H83.422C86.686 84.992 89.31 84.448 91.294 83.36C93.342 82.208 94.366 80.192 94.366 77.312C94.366 75.008 93.726 73.216 92.446 71.936C91.166 70.656 89.406 70.016 87.166 70.016C84.734 70.016 82.91 70.752 81.694 72.224C80.542 73.696 79.87 75.52 79.678 77.696H63.646Z" fill="black" fill-opacity="0.3"/>
<defs>
<filter id="filter0_d_1026_67" x="109" y="0" width="410" height="310" filterUnits="userSpaceOnUse" color-interpolation-filters="sRGB">
<feFlood flood-opacity="0" result="BackgroundImageFix"/>
<feColorMatrix in="SourceAlpha" type="matrix" values="0 0 0 0 0 0 0 0 0 0 0 0 0 0 0 0 0 0 127 0" result="hardAlpha"/>
<feMorphology radius="5" operator="dilate" in="SourceAlpha" result="effect1_dropShadow_1026_67"/>
<feOffset dx="2" dy="5"/>
<feGaussianBlur stdDeviation="10"/>
<feComposite in2="hardAlpha" operator="out"/>
<feColorMatrix type="matrix" values="0 0 0 0 0 0 0 0 0 0 0 0 0 0 0 0 0 0 0.1 0"/>
<feBlend mode="normal" in2="BackgroundImageFix" result="effect1_dropShadow_1026_67"/>
<feBlend mode="normal" in="SourceGraphic" in2="effect1_dropShadow_1026_67" result="shape"/>
</filter>
</defs>
</svg>
