<svg width="516" height="300" viewBox="0 0 516 300" fill="none" xmlns="http://www.w3.org/2000/svg">
    <path
        d="M384.995 28.8869C414.827 47.8306 434.282 71.2442 454.062 94.2321C474.166 117.22 494.595 139.995 499.134 164.26C503.35 188.525 491.676 214.493 474.815 241.099C457.953 267.493 435.904 294.525 401.532 299.208C367.161 303.89 320.792 286.649 281.556 278.135C242.321 269.834 210.543 270.473 169.686 268.131C129.154 265.577 79.5422 260.469 47.4405 242.376C15.663 224.284 1.39558 193.421 0.098539 162.132C-1.1985 130.63 10.1506 98.9149 43.5494 82.0996C76.6239 65.2844 131.1 63.7945 173.253 49.3206C215.083 34.8467 244.59 7.81466 279.611 1.42913C314.631 -4.74354 354.839 9.94317 384.995 28.8869Z"
        fill="#FFF1DE" />
    <g filter="url(#filter0_d_1026_31)">
        <g clip-path="url(#clip0_1026_31)">
            <rect x="129" y="20" width="360" height="260" rx="25" fill="white" fill-opacity="0.8"
                shape-rendering="crispEdges" />
            <rect x="159" y="84" width="100" height="12" rx="3" fill="#EAEAEA" />
            <rect x="159" y="101" width="300" height="12" rx="3" fill="#EAEAEA" />
            <rect x="159" y="118" width="250" height="12" rx="3" fill="#EAEAEA" />
            <rect x="159" y="140" width="300" height="30" rx="5" fill="#CFF500" />
            <path d="M287.333 155H296.667" stroke="black" stroke-width="1.5" stroke-linecap="round"
                stroke-linejoin="round" />
            <path d="M292 150.333V159.667" stroke="black" stroke-width="1.5" stroke-linecap="round"
                stroke-linejoin="round" />
            <path
                d="M312.047 158.012H307.973L307.273 160H305.607L309.093 150.256H310.941L314.427 160H312.747L312.047 158.012ZM311.599 156.71L310.017 152.188L308.421 156.71H311.599ZM315.411 156.108C315.411 155.333 315.569 154.647 315.887 154.05C316.213 153.453 316.652 152.991 317.203 152.664C317.763 152.328 318.383 152.16 319.065 152.16C319.569 152.16 320.063 152.272 320.549 152.496C321.043 152.711 321.435 153 321.725 153.364V149.64H323.335V160H321.725V158.838C321.463 159.211 321.099 159.519 320.633 159.762C320.175 160.005 319.648 160.126 319.051 160.126C318.379 160.126 317.763 159.958 317.203 159.622C316.652 159.277 316.213 158.801 315.887 158.194C315.569 157.578 315.411 156.883 315.411 156.108ZM321.725 156.136C321.725 155.604 321.613 155.142 321.389 154.75C321.174 154.358 320.889 154.059 320.535 153.854C320.18 153.649 319.797 153.546 319.387 153.546C318.976 153.546 318.593 153.649 318.239 153.854C317.884 154.05 317.595 154.344 317.371 154.736C317.156 155.119 317.049 155.576 317.049 156.108C317.049 156.64 317.156 157.107 317.371 157.508C317.595 157.909 317.884 158.217 318.239 158.432C318.603 158.637 318.985 158.74 319.387 158.74C319.797 158.74 320.18 158.637 320.535 158.432C320.889 158.227 321.174 157.928 321.389 157.536C321.613 157.135 321.725 156.668 321.725 156.136ZM324.899 156.108C324.899 155.333 325.058 154.647 325.375 154.05C325.702 153.453 326.14 152.991 326.691 152.664C327.251 152.328 327.872 152.16 328.553 152.16C329.057 152.16 329.552 152.272 330.037 152.496C330.532 152.711 330.924 153 331.213 153.364V149.64H332.823V160H331.213V158.838C330.952 159.211 330.588 159.519 330.121 159.762C329.664 160.005 329.136 160.126 328.539 160.126C327.867 160.126 327.251 159.958 326.691 159.622C326.14 159.277 325.702 158.801 325.375 158.194C325.058 157.578 324.899 156.883 324.899 156.108ZM331.213 156.136C331.213 155.604 331.101 155.142 330.877 154.75C330.662 154.358 330.378 154.059 330.023 153.854C329.668 153.649 329.286 153.546 328.875 153.546C328.464 153.546 328.082 153.649 327.727 153.854C327.372 154.05 327.083 154.344 326.859 154.736C326.644 155.119 326.537 155.576 326.537 156.108C326.537 156.64 326.644 157.107 326.859 157.508C327.083 157.909 327.372 158.217 327.727 158.432C328.091 158.637 328.474 158.74 328.875 158.74C329.286 158.74 329.668 158.637 330.023 158.432C330.378 158.227 330.662 157.928 330.877 157.536C331.101 157.135 331.213 156.668 331.213 156.136Z"
                fill="black" />
            <path
                d="M252.174 61.34H246.614L245.694 64H242.754L247.774 50.02H251.034L256.054 64H253.094L252.174 61.34ZM251.414 59.1L249.394 53.26L247.374 59.1H251.414ZM257.211 58.42C257.211 57.3 257.431 56.3067 257.871 55.44C258.324 54.5733 258.937 53.9067 259.711 53.44C260.484 52.9733 261.344 52.74 262.291 52.74C263.011 52.74 263.697 52.9 264.351 53.22C265.004 53.5267 265.524 53.94 265.911 54.46V49.2H268.751V64H265.911V62.36C265.564 62.9067 265.077 63.3467 264.451 63.68C263.824 64.0133 263.097 64.18 262.271 64.18C261.337 64.18 260.484 63.94 259.711 63.46C258.937 62.98 258.324 62.3067 257.871 61.44C257.431 60.56 257.211 59.5533 257.211 58.42ZM265.931 58.46C265.931 57.78 265.797 57.2 265.531 56.72C265.264 56.2267 264.904 55.8533 264.451 55.6C263.997 55.3333 263.511 55.2 262.991 55.2C262.471 55.2 261.991 55.3267 261.551 55.58C261.111 55.8333 260.751 56.2067 260.471 56.7C260.204 57.18 260.071 57.7533 260.071 58.42C260.071 59.0867 260.204 59.6733 260.471 60.18C260.751 60.6733 261.111 61.0533 261.551 61.32C262.004 61.5867 262.484 61.72 262.991 61.72C263.511 61.72 263.997 61.5933 264.451 61.34C264.904 61.0733 265.264 60.7 265.531 60.22C265.797 59.7267 265.931 59.14 265.931 58.46ZM270.765 58.42C270.765 57.3 270.985 56.3067 271.425 55.44C271.879 54.5733 272.492 53.9067 273.265 53.44C274.039 52.9733 274.899 52.74 275.845 52.74C276.565 52.74 277.252 52.9 277.905 53.22C278.559 53.5267 279.079 53.94 279.465 54.46V49.2H282.305V64H279.465V62.36C279.119 62.9067 278.632 63.3467 278.005 63.68C277.379 64.0133 276.652 64.18 275.825 64.18C274.892 64.18 274.039 63.94 273.265 63.46C272.492 62.98 271.879 62.3067 271.425 61.44C270.985 60.56 270.765 59.5533 270.765 58.42ZM279.485 58.46C279.485 57.78 279.352 57.2 279.085 56.72C278.819 56.2267 278.459 55.8533 278.005 55.6C277.552 55.3333 277.065 55.2 276.545 55.2C276.025 55.2 275.545 55.3267 275.105 55.58C274.665 55.8333 274.305 56.2067 274.025 56.7C273.759 57.18 273.625 57.7533 273.625 58.42C273.625 59.0867 273.759 59.6733 274.025 60.18C274.305 60.6733 274.665 61.0533 275.105 61.32C275.559 61.5867 276.039 61.72 276.545 61.72C277.065 61.72 277.552 61.5933 278.005 61.34C278.459 61.0733 278.819 60.7 279.085 60.22C279.352 59.7267 279.485 59.14 279.485 58.46ZM301.746 64H298.946L292.606 54.42V64H289.806V50.02H292.606L298.946 59.62V50.02H301.746V64ZM314.813 58.22C314.813 58.62 314.786 58.98 314.733 59.3H306.633C306.699 60.1 306.979 60.7267 307.473 61.18C307.966 61.6333 308.573 61.86 309.293 61.86C310.333 61.86 311.073 61.4133 311.513 60.52H314.533C314.213 61.5867 313.599 62.4667 312.693 63.16C311.786 63.84 310.673 64.18 309.353 64.18C308.286 64.18 307.326 63.9467 306.473 63.48C305.633 63 304.973 62.3267 304.493 61.46C304.026 60.5933 303.793 59.5933 303.793 58.46C303.793 57.3133 304.026 56.3067 304.493 55.44C304.959 54.5733 305.613 53.9067 306.453 53.44C307.293 52.9733 308.259 52.74 309.353 52.74C310.406 52.74 311.346 52.9667 312.173 53.42C313.013 53.8733 313.659 54.52 314.113 55.36C314.579 56.1867 314.813 57.14 314.813 58.22ZM311.913 57.42C311.899 56.7 311.639 56.1267 311.133 55.7C310.626 55.26 310.006 55.04 309.273 55.04C308.579 55.04 307.993 55.2533 307.513 55.68C307.046 56.0933 306.759 56.6733 306.653 57.42H311.913ZM332.217 52.92L328.977 64H325.957L323.937 56.26L321.917 64H318.877L315.617 52.92H318.457L320.417 61.36L322.537 52.92H325.497L327.577 61.34L329.537 52.92H332.217ZM341.297 61.78H345.897V64H338.497V50.04H341.297V61.78ZM349.097 51.6C348.604 51.6 348.19 51.4467 347.857 51.14C347.537 50.82 347.377 50.4267 347.377 49.96C347.377 49.4933 347.537 49.1067 347.857 48.8C348.19 48.48 348.604 48.32 349.097 48.32C349.59 48.32 349.997 48.48 350.317 48.8C350.65 49.1067 350.817 49.4933 350.817 49.96C350.817 50.4267 350.65 50.82 350.317 51.14C349.997 51.4467 349.59 51.6 349.097 51.6ZM350.477 52.92V64H347.677V52.92H350.477ZM359.383 52.76C360.703 52.76 361.77 53.18 362.583 54.02C363.397 54.8467 363.803 56.0067 363.803 57.5V64H361.003V57.88C361.003 57 360.783 56.3267 360.343 55.86C359.903 55.38 359.303 55.14 358.543 55.14C357.77 55.14 357.157 55.38 356.703 55.86C356.263 56.3267 356.043 57 356.043 57.88V64H353.243V52.92H356.043V54.3C356.417 53.82 356.89 53.4467 357.463 53.18C358.05 52.9 358.69 52.76 359.383 52.76ZM373.026 64L369.266 59.28V64H366.466V49.2H369.266V57.62L372.986 52.92H376.626L371.746 58.48L376.666 64H373.026Z"
                fill="black" />
            <rect x="159" y="190" width="300" height="50" rx="3" fill="#EAEAEA" />
            <rect x="159" y="250" width="300" height="50" rx="3" fill="#EAEAEA" />
        </g>
    </g>
    <path
        d="M0.585625 92C0.585625 80.992 2.69763 72.32 6.92163 65.984C11.2096 59.648 18.0896 56.48 27.5616 56.48C37.0336 56.48 43.8816 59.648 48.1056 65.984C52.3936 72.32 54.5376 80.992 54.5376 92C54.5376 103.136 52.3936 111.872 48.1056 118.208C43.8816 124.544 37.0336 127.712 27.5616 127.712C18.0896 127.712 11.2096 124.544 6.92163 118.208C2.69763 111.872 0.585625 103.136 0.585625 92ZM38.4096 92C38.4096 85.536 37.7056 80.576 36.2976 77.12C34.8896 73.6 31.9776 71.84 27.5616 71.84C23.1456 71.84 20.2336 73.6 18.8256 77.12C17.4176 80.576 16.7136 85.536 16.7136 92C16.7136 96.352 16.9696 99.968 17.4816 102.848C17.9936 105.664 19.0176 107.968 20.5536 109.76C22.1536 111.488 24.4896 112.352 27.5616 112.352C30.6336 112.352 32.9376 111.488 34.4736 109.76C36.0736 107.968 37.1296 105.664 37.6416 102.848C38.1536 99.968 38.4096 96.352 38.4096 92ZM62.6346 114.848C64.8106 113.12 65.8026 112.32 65.6106 112.448C71.8826 107.264 76.8106 103.008 80.3946 99.68C84.0426 96.352 87.1146 92.864 89.6106 89.216C92.1066 85.568 93.3546 82.016 93.3546 78.56C93.3546 75.936 92.7466 73.888 91.5306 72.416C90.3146 70.944 88.4906 70.208 86.0586 70.208C83.6266 70.208 81.7066 71.136 80.2986 72.992C78.9546 74.784 78.2826 77.344 78.2826 80.672H62.4426C62.5706 75.232 63.7226 70.688 65.8986 67.04C68.1386 63.392 71.0506 60.704 74.6346 58.976C78.2826 57.248 82.3146 56.384 86.7306 56.384C94.3466 56.384 100.075 58.336 103.915 62.24C107.819 66.144 109.771 71.232 109.771 77.504C109.771 84.352 107.435 90.72 102.763 96.608C98.0906 102.432 92.1386 108.128 84.9066 113.696H110.827V127.04H62.6346V114.848Z"
        fill="black" fill-opacity="0.3" />
    <defs>
        <filter id="filter0_d_1026_31" x="106" y="0" width="410" height="310"
            filterUnits="userSpaceOnUse" color-interpolation-filters="sRGB">
            <feFlood flood-opacity="0" result="BackgroundImageFix" />
            <feColorMatrix in="SourceAlpha" type="matrix"
                values="0 0 0 0 0 0 0 0 0 0 0 0 0 0 0 0 0 0 127 0" result="hardAlpha" />
            <feMorphology radius="5" operator="dilate" in="SourceAlpha"
                result="effect1_dropShadow_1026_31" />
            <feOffset dx="2" dy="5" />
            <feGaussianBlur stdDeviation="10" />
            <feComposite in2="hardAlpha" operator="out" />
            <feColorMatrix type="matrix" values="0 0 0 0 0 0 0 0 0 0 0 0 0 0 0 0 0 0 0.1 0" />
            <feBlend mode="normal" in2="BackgroundImageFix" result="effect1_dropShadow_1026_31" />
            <feBlend mode="normal" in="SourceGraphic" in2="effect1_dropShadow_1026_31"
                result="shape" />
        </filter>
        <clipPath id="clip0_1026_31">
            <rect x="129" y="20" width="360" height="260" rx="25" fill="white" />
        </clipPath>
    </defs>
</svg>