<svg width="20" height="20" viewBox="0 0 20 20" fill="none" xmlns="http://www.w3.org/2000/svg">
    <g clip-path="url(#clip0_1069_93)">
        <path
            d="M10 0.833252C4.94557 0.833252 0.833374 4.94545 0.833374 9.99992C0.833374 15.0544 4.94557 19.1666 10 19.1666C15.0545 19.1666 19.1667 15.0544 19.1667 9.99992C19.1667 4.94545 15.0545 0.833252 10 0.833252ZM10 2.20825C14.3114 2.20825 17.7917 5.68856 17.7917 9.99992C17.7917 13.5132 15.4803 16.4727 12.2917 17.4487V15.1042C12.2917 14.2288 11.7872 13.478 11.0581 13.1044C11.7671 12.9688 12.4253 12.6999 12.9783 12.32C13.5312 11.94 13.963 11.4601 14.2376 10.92C14.5123 10.3798 14.622 9.79509 14.5575 9.21425C14.4931 8.63342 14.2565 8.07325 13.8672 7.58024C14.0705 6.95448 14.2976 5.85689 13.758 4.99316C12.7177 4.99316 12.0463 5.70629 11.726 6.14974C11.1782 5.96981 10.5921 5.87648 10 5.87492C9.40757 5.87544 8.82084 5.96786 8.27234 6.14705C7.95117 5.7034 7.28039 4.99316 6.24207 4.99316C5.62283 5.98438 6.00563 7.05034 6.21073 7.48535C5.79518 7.97624 5.53461 8.54041 5.45136 9.12952C5.36812 9.71863 5.46467 10.3151 5.73276 10.8678C6.00084 11.4205 6.43245 11.913 6.9906 12.303C7.54875 12.693 8.21679 12.9689 8.93746 13.1071C8.33881 13.4156 7.89046 13.9755 7.75313 14.6549H7.15068C6.55622 14.6549 6.32524 14.4133 6.00395 14.0059C5.68678 13.5984 5.34574 13.3246 4.93599 13.2109C4.71508 13.1876 4.56625 13.3556 4.75875 13.5046C5.40912 13.9473 5.45401 14.6719 5.7148 15.1463C5.95222 15.5735 6.43865 15.9583 6.98865 15.9583H7.70837V17.4487C4.51978 16.4727 2.20837 13.5132 2.20837 9.99992C2.20837 5.68856 5.68868 2.20825 10 2.20825Z"
            fill="white" />
    </g>
    <defs>
        <clipPath id="clip0_1069_93">
            <rect width="20" height="20" fill="white" />
        </clipPath>
    </defs>
</svg>