<svg xmlns="http://www.w3.org/2000/svg" width="800" height="800" fill="none">
    <path fill="url(#a)"
        d="M295.596 33.092c-20.525 4.364-37.01 12.768-53.495 27.636-18.263 16.324-90.505 88.728-99.879 100.041-10.666 12.929-19.394 29.576-22.949 43.96-3.394 13.899-2.586 16.646 5.495 15.191 3.232-.484 13.737-.969 23.111-.969h17.131l3.556-9.697c2.424-6.465 6.464-12.768 12.121-19.071 19.394-20.848 96.808-96.646 103.111-100.848 19.879-13.415 47.03-12.283 67.071 2.585 13.576 10.182 42.828 40.889 47.03 49.455 4.041 8.566 6.788 21.495 6.788 32.646 0 4.687 1.293 10.505 3.232 14.223 3.071 5.818 28.122 32.323 30.707 32.323 2.586 0 9.697-19.717 12.283-33.94 5.98-35.232-4.202-67.717-29.252-94.06-27.152-28.445-44.122-42.99-57.697-49.616-20.849-10.02-48.162-13.9-68.364-9.859Z" />
    <path fill="url(#b)"
        d="M459.636 34.062c-17.778 3.717-50.101 22.141-50.101 28.444 0 1.778 28.445 32.485 30.869 33.293.808.323 5.818-2.263 11.151-5.818 17.455-11.798 39.758-13.091 58.667-3.717 8.404 4.04 17.778 12.767 60.444 55.434 54.465 54.626 55.435 55.596 59.314 64.97 5.01 12.121 6.303 25.535 3.555 36.525-4.202 16.323-9.535 24.081-32.646 47.03-11.96 11.96-23.435 24.566-25.374 28.122-2.909 5.333-3.556 9.858-4.04 26.181-.647 19.556-.647 19.879 2.909 19.879 4.848 0 25.05-9.697 34.585-16.646 11.96-8.728 48.809-45.899 56.243-56.728 12.929-18.909 20.202-44.606 18.424-65.292-2.101-25.697-9.697-44.607-25.858-64.485-14.707-18.101-101.819-103.596-112.97-111.03-24.889-16.324-56.404-22.465-85.172-16.162Z" />
    <path fill="url(#c)"
        d="M358.949 119.234c-1.454 2.262-4.686 9.858-7.111 16.808-3.717 10.989-4.363 15.192-4.363 32-.162 15.838.646 21.656 3.555 31.515 7.919 25.212 10.344 28.283 72.889 90.505 40.243 40.081 60.283 58.99 66.909 62.868 5.172 3.071 9.859 5.011 10.505 4.364.647-.646 1.616-11.151 2.101-23.273.647-12.121 1.616-23.434 2.263-25.05.97-2.424-8.404-12.606-48.808-53.333-27.475-27.798-51.556-53.011-53.495-56.243-4.364-7.111-8.404-22.626-8.404-31.677 0-12.606-5.495-23.272-19.879-38.626l-13.414-14.061-2.748 4.203Z" />
    <path fill="url(#d)"
        d="M123.798 230.264c-44.121 6.141-80.97 39.596-91.96 83.232-2.424 10.02-2.747 20.687-2.747 89.697 0 75.313.161 78.869 3.555 90.99 5.495 20.202 13.738 33.939 29.414 49.616 10.506 10.505 16.647 15.192 25.86 19.717 20.039 9.697 28.12 11.314 61.413 12.122 34.909.969 53.01-1.455 72.404-9.536 14.222-5.818 33.616-20.687 42.667-32.808 7.758-10.02 17.454-29.091 17.454-33.939 0-8.404-23.272-11.637-39.595-5.495-6.788 2.586-11.637 5.98-18.748 13.576-6.626 6.949-13.091 11.636-19.717 14.868-10.02 4.526-10.02 4.526-43.96 4.526-28.283 0-35.232-.485-42.02-2.91-16.646-5.818-31.838-21.495-37.333-38.787-2.424-7.112-2.91-18.425-3.556-72.404-.646-70.142.485-87.112 6.788-100.687 4.687-10.021 15.838-21.495 27.152-27.798l8.565-4.687 35.556-.485c41.697-.647 46.868.485 63.03 14.222 14.222 11.798 21.98 15.192 35.556 15.354 11.959 0 26.666-4.364 26.666-7.758 0-3.879-9.697-20.687-17.131-30.222-4.202-5.333-12.768-13.737-19.071-18.586-22.141-16.808-40.081-21.818-82.586-22.626-15.03-.323-32.161 0-37.656.808Z" />
    <path fill="url(#e)"
        d="M593.778 233.658c-39.435 10.182-70.788 42.343-78.384 80.323-2.909 14.869-4.849 148.202-2.263 166.141 3.556 25.536 14.546 46.546 34.425 65.778 14.545 14.222 31.191 22.626 53.494 27.152 14.061 2.909 20.364 3.232 47.677 2.586 35.233-.808 43.152-2.263 63.031-12.122 16.808-8.242 37.333-28.606 45.737-45.575 11.96-24.243 12.444-27.96 12.444-114.101 0-82.425-.484-88.243-8.888-109.253-5.334-13.252-18.102-30.061-30.546-40.242-9.535-7.758-29.899-19.233-34.263-19.233-1.293 0-2.424 2.909-3.07 7.596-.485 4.364-2.425 13.253-4.202 19.879-1.778 6.626-3.717 13.737-4.202 15.677-.647 2.747.646 4.202 6.464 7.596 11.152 6.626 22.788 19.879 26.829 30.707 3.394 9.374 3.555 10.505 3.07 88.889l-.485 79.353-3.878 7.273c-9.374 17.778-22.627 28.606-40.566 33.293-14.707 3.717-65.293 2.586-75.96-1.778-17.293-7.111-32.484-23.273-37.01-39.919-1.454-5.01-1.777-27.798-1.454-84.525l.485-77.576 4.04-8.081c2.747-5.495 11.475-15.353 26.99-30.707 24.566-24.081 31.192-33.939 31.192-46.545v-5.98l-9.212.161c-5.172 0-14.869 1.455-21.495 3.233Z" />
    <path fill="url(#f)"
        d="M322.747 275.678c-42.989 42.343-43.636 42.667-69.171 42.667-21.01 0-26.667-2.101-42.505-16-14.061-12.122-20.687-13.899-51.394-13.899-26.182 0-27.475.485-22.465 6.949 6.303 8.404 38.465 41.212 46.869 48 5.333 4.202 14.868 10.182 21.01 13.253 35.394 17.777 83.394 13.575 113.131-10.021 6.465-5.01 73.536-71.111 73.536-72.404 0-.323-7.435-8.08-16.647-17.292l-16.646-16.485-35.718 35.232Z" />
    <path fill="url(#g)"
        d="M275.071 376.688c-.485.485-8.889.97-18.425 1.293l-17.616.323v42.99l21.01.485c11.637.162 22.303.97 23.92 1.616 2.747 1.131 3.232.162 3.232-8.081 0-1.293-.162-10.828-.323-21.01l-.162-18.586h-5.333c-3.071 0-5.818.485-6.303.97Z" />
    <path fill="url(#h)"
        d="M231.757 434.708c-4.848 1.455-14.868 5.495-22.303 9.051-11.798 5.656-16.484 9.374-37.495 29.899-26.505 25.858-37.818 40.242-33.939 42.828 1.455.97 12.121 1.131 26.667.485 28.444-1.131 35.394-3.394 46.222-14.707 9.212-9.374 22.141-17.778 31.354-20.041 4.04-.969 13.414-1.616 20.848-1.131 23.758 1.293 24.889 2.101 84.364 62.222 35.07 35.233 53.495 55.111 56.565 60.768 4.364 7.758 4.687 9.697 4.526 24.566 0 8.889-.647 19.07-1.293 22.788l-1.293 6.626 15.515 15.192c8.566 8.404 16.323 15.515 17.293 15.838 4.04 1.293 13.414-17.454 16.808-33.616 5.495-26.02 1.939-53.657-9.859-76.606-5.495-10.344-12.121-17.616-63.515-69.01-60.929-60.768-65.454-64.485-87.757-72.243-15.192-5.333-48.485-6.788-62.708-2.909Z" />
    <path fill="url(#i)"
        d="M571.475 458.466c.808 25.212 2.585 30.06 16.161 43.151 12.929 12.445 20.849 14.869 49.94 15.192 13.091.162 24.242-.161 24.888-.808 3.071-2.909-17.292-26.828-44.444-52.04-14.061-13.091-36.202-26.828-43.475-26.828h-3.717l.647 21.333Z" />
    <path fill="url(#j)"
        d="M490.828 443.436c-14.869 8.242-23.111 15.353-53.818 46.222l-29.738 29.899 16 16.161c8.889 8.889 16.97 16.162 18.101 16.162 1.132 0 15.839-13.576 32.485-30.384l30.546-30.222-.97-25.697c-.646-14.869-1.616-26.02-2.586-26.343-.808-.162-5.495 1.616-10.02 4.202Z" />
    <path fill="url(#k)"
        d="M356.525 575.638c-11.151 16.161-17.454 45.252-14.869 67.878 3.394 29.738 12.445 45.576 44.283 77.415 31.515 31.676 43.313 39.272 69.657 45.09 16.161 3.718 38.949 2.586 54.949-2.424 23.435-7.434 29.899-12.444 86.95-69.333 29.252-28.929 56.242-57.051 60.121-62.546 7.273-10.02 15.838-29.252 17.778-39.919l1.131-5.98h-48.808l-4.364 9.213c-3.555 7.919-12.282 17.454-56.889 62.06-62.222 62.222-61.899 62.061-88.242 62.061-23.434 0-28.283-2.586-56.242-30.707-26.182-26.344-30.707-33.778-31.677-52.364-.323-6.626.323-15.838 1.454-20.364 1.293-5.171 1.455-9.373.647-10.99-1.616-2.747-28.445-30.868-31.192-32.484-.808-.485-2.909.969-4.687 3.394Z" />
    <path fill="url(#l)"
        d="M124.283 591.799c2.101 11.475 10.505 30.546 17.616 40.081 3.879 5.333 31.03 33.455 60.121 62.384 57.374 56.889 64.162 62.384 87.111 69.333 30.546 9.212 65.778 4.202 92.606-13.252 5.495-3.556 10.02-6.95 10.02-7.596 0-1.778-33.131-34.101-34.909-34.101-1.131 0-2.747 1.131-3.878 2.424-4.041 4.848-23.435 9.374-36.364 8.566-21.818-1.455-24.081-3.071-83.394-62.546-41.374-41.374-53.333-54.465-56.242-60.768-2.101-4.525-4.526-8.565-5.657-9.212-.97-.646-12.283-1.293-25.051-1.293h-23.111l1.132 5.98Z" />
    <defs>
        <linearGradient id="a" x1="284.981" x2="284.981" y1="220.567" y2="31.515"
            gradientUnits="userSpaceOnUse">
            <stop stop-color="#CFF500" />
            <stop offset=".5" stop-color="#20C000" />
            <stop offset="1" stop-color="#008F88" />
        </linearGradient>
        <linearGradient id="b" x1="546.718" x2="546.718" y1="364.405" y2="31.629"
            gradientUnits="userSpaceOnUse">
            <stop stop-color="#CFF500" />
            <stop offset=".5" stop-color="#20C000" />
            <stop offset="1" stop-color="#008F88" />
        </linearGradient>
        <linearGradient id="c" x1="426.609" x2="426.609" y1="357.418" y2="115.031"
            gradientUnits="userSpaceOnUse">
            <stop stop-color="#CFF500" />
            <stop offset=".5" stop-color="#20C000" />
            <stop offset="1" stop-color="#008F88" />
        </linearGradient>
        <linearGradient id="d" x1="155.475" x2="155.475" y1="575.839" y2="229.332"
            gradientUnits="userSpaceOnUse">
            <stop stop-color="#CFF500" />
            <stop offset=".5" stop-color="#20C000" />
            <stop offset="1" stop-color="#008F88" />
        </linearGradient>
        <linearGradient id="e" x1="640.931" x2="640.931" y1="575.917" y2="230.264"
            gradientUnits="userSpaceOnUse">
            <stop stop-color="#CFF500" />
            <stop offset=".5" stop-color="#20C000" />
            <stop offset="1" stop-color="#008F88" />
        </linearGradient>
        <linearGradient id="f" x1="263.326" x2="263.326" y1="367.609" y2="240.446"
            gradientUnits="userSpaceOnUse">
            <stop stop-color="#CFF500" />
            <stop offset=".5" stop-color="#20C000" />
            <stop offset="1" stop-color="#008F88" />
        </linearGradient>
        <linearGradient id="g" x1="263.111" x2="263.111" y1="423.782" y2="375.718"
            gradientUnits="userSpaceOnUse">
            <stop stop-color="#CFF500" />
            <stop offset=".5" stop-color="#20C000" />
            <stop offset="1" stop-color="#008F88" />
        </linearGradient>
        <linearGradient id="h" x1="297.699" x2="297.699" y1="689.155" y2="432.517"
            gradientUnits="userSpaceOnUse">
            <stop stop-color="#CFF500" />
            <stop offset=".5" stop-color="#20C000" />
            <stop offset="1" stop-color="#008F88" />
        </linearGradient>
        <linearGradient id="i" x1="616.8" x2="616.8" y1="516.851" y2="437.133"
            gradientUnits="userSpaceOnUse">
            <stop stop-color="#CFF500" />
            <stop offset=".5" stop-color="#20C000" />
            <stop offset="1" stop-color="#008F88" />
        </linearGradient>
        <linearGradient id="j" x1="455.838" x2="455.838" y1="551.88" y2="439.223"
            gradientUnits="userSpaceOnUse">
            <stop stop-color="#CFF500" />
            <stop offset=".5" stop-color="#20C000" />
            <stop offset="1" stop-color="#008F88" />
        </linearGradient>
        <linearGradient id="k" x1="508.802" x2="508.802" y1="768.217" y2="572.151"
            gradientUnits="userSpaceOnUse">
            <stop stop-color="#CFF500" />
            <stop offset=".5" stop-color="#20C000" />
            <stop offset="1" stop-color="#008F88" />
        </linearGradient>
        <linearGradient id="l" x1="257.454" x2="257.454" y1="768.135" y2="585.819"
            gradientUnits="userSpaceOnUse">
            <stop stop-color="#CFF500" />
            <stop offset=".5" stop-color="#20C000" />
            <stop offset="1" stop-color="#008F88" />
        </linearGradient>
    </defs>
</svg>