<svg width="20" height="20" viewBox="0 0 20 20" fill="none" xmlns="http://www.w3.org/2000/svg">
    <path
        d="M6.99974 2.5C6.57544 2.5 6.1819 2.59483 5.83329 2.79518C4.7438 3.42313 4.3291 4.9534 4.54884 6.85864C2.78656 7.62129 1.66663 8.74426 1.66663 10C1.66663 11.2557 2.78656 12.3787 4.54884 13.1414C4.32922 15.0465 4.7438 16.5769 5.83329 17.2048C6.18121 17.4052 6.57474 17.5 6.99974 17.5C7.90434 17.5 8.94985 17.0468 9.99996 16.2692C11.0502 17.0468 12.0969 17.5 13.0015 17.5C13.4258 17.5 13.8194 17.4052 14.168 17.2048C15.2575 16.5769 15.6722 15.0466 15.4524 13.1414C17.2141 12.3787 18.3333 11.2555 18.3333 10C18.3333 8.74426 17.2134 7.62129 15.4511 6.85864C15.6707 4.95348 15.2561 3.42313 14.1666 2.79518C13.8187 2.59413 13.4252 2.5 13.0002 2.5C12.0956 2.5 11.0501 2.95324 9.99996 3.73082C8.94979 2.95324 7.90403 2.5 6.99974 2.5ZM6.99974 3.71322C7.54254 3.71322 8.26035 4.00134 9.03967 4.53511C8.58147 4.9668 8.1327 5.45767 7.70097 6.00424C7.00071 6.10448 6.34048 6.2506 5.72885 6.43347C5.72557 6.39113 5.71779 6.3467 5.71529 6.30484C5.64099 5.07082 5.91246 4.15095 6.44093 3.84591C6.59718 3.75579 6.7796 3.71322 6.99974 3.71322ZM13.0002 3.71322C13.2196 3.71322 13.4027 3.75579 13.559 3.84591C14.0875 4.15025 14.3589 5.07082 14.2846 6.30484C14.2821 6.3467 14.2744 6.39113 14.2711 6.43347C13.6591 6.25049 12.9983 6.10449 12.2976 6.00424C11.8659 5.45775 11.4184 4.96675 10.9602 4.53511C11.7395 4.00143 12.4577 3.71322 13.0002 3.71322ZM9.99996 5.30556C10.1882 5.47661 10.3751 5.65741 10.5642 5.8553C10.3768 5.84902 10.1905 5.8404 9.99996 5.8404C9.80988 5.8404 9.62399 5.84905 9.43708 5.8553C9.62596 5.65761 9.81189 5.47645 9.99996 5.30556ZM9.99996 7.05362C10.5754 7.05362 11.1209 7.08573 11.6384 7.14163C11.954 7.56989 12.2651 8.02267 12.5567 8.52681C12.8361 9.01004 13.0832 9.50465 13.3013 10C13.0832 10.4956 12.8363 10.991 12.5567 11.4745C12.266 11.9772 11.9557 12.4271 11.6411 12.8543C11.1053 12.9128 10.5557 12.9464 9.99996 12.9464C9.42448 12.9464 8.87904 12.9143 8.3615 12.8584C8.04589 12.4301 7.73484 11.9787 7.44326 11.4745C7.16363 10.991 6.91676 10.4956 6.69864 10C6.91661 9.50465 7.1638 9.01004 7.44326 8.52681C7.73404 8.02413 8.04413 7.57291 8.35879 7.14569C8.8946 7.08717 9.44425 7.05362 9.99996 7.05362ZM13.2959 7.42869C13.5714 7.49509 13.8362 7.56678 14.0852 7.64669C14.0288 7.90115 13.9598 8.16049 13.8818 8.42255C13.7924 8.25515 13.7058 8.08721 13.6092 7.9202C13.5098 7.74841 13.3994 7.59406 13.2959 7.42869ZM6.7027 7.43004C6.59948 7.5949 6.48982 7.74896 6.39075 7.9202C6.29417 8.08724 6.20746 8.25512 6.11812 8.42255C6.0399 8.15995 5.96979 7.9003 5.91332 7.64533C6.16688 7.56535 6.43109 7.49453 6.7027 7.43004ZM4.76992 8.09081C4.91624 8.70755 5.11922 9.34689 5.38028 9.99865C5.11977 10.6489 4.91765 11.287 4.77128 11.9024C3.56193 11.3194 2.8819 10.5937 2.8819 10C2.8819 9.39062 3.54293 8.69615 4.65057 8.14362C4.68837 8.12474 4.73129 8.10925 4.76992 8.09081ZM15.2286 8.09758C16.438 8.68057 17.118 9.4063 17.118 10C17.118 10.6094 16.457 11.3038 15.3494 11.8564C15.3115 11.8753 15.2686 11.8907 15.23 11.9092C15.0836 11.2921 14.8823 10.6522 14.621 10C14.8812 9.35035 15.0824 8.71247 15.2286 8.09758ZM9.99996 8.61347C9.2326 8.61347 8.61107 9.23394 8.61107 10C8.61107 10.7661 9.2326 11.3865 9.99996 11.3865C10.7673 11.3865 11.3888 10.7661 11.3888 10C11.3888 9.23394 10.7673 8.61347 9.99996 8.61347ZM6.11812 11.5774C6.20751 11.7449 6.29546 11.9127 6.3921 12.0798C6.49139 12.2515 6.60059 12.4061 6.70406 12.5713C6.42854 12.5049 6.16367 12.4332 5.91467 12.3533C5.97113 12.0987 6.04001 11.8397 6.11812 11.5774ZM13.8818 11.5788C13.9599 11.8411 14.0302 12.0999 14.0866 12.3547C13.833 12.4346 13.5688 12.5055 13.2972 12.57C13.4004 12.4051 13.5101 12.251 13.6092 12.0798C13.7055 11.9131 13.7926 11.7459 13.8818 11.5788ZM5.72885 13.5665C6.34086 13.7495 7.00158 13.8955 7.70232 13.9958C8.13419 14.5425 8.58127 15.0345 9.03967 15.4662C8.26041 15.9999 7.54251 16.2881 6.99974 16.2881C6.7803 16.2881 6.59718 16.2442 6.44093 16.1541C5.91246 15.8497 5.64099 14.9305 5.71529 13.6965C5.71784 13.6542 5.72551 13.6093 5.72885 13.5665ZM14.2711 13.5665C14.2744 13.6093 14.2821 13.6542 14.2846 13.6965C14.3589 14.9305 14.0875 15.8491 13.559 16.1541C13.4027 16.2442 13.2203 16.2881 13.0002 16.2881C12.4574 16.2881 11.7395 15.9999 10.9602 15.4662C11.4187 15.0344 11.867 14.5426 12.299 13.9958C12.9992 13.8955 13.6594 13.7494 14.2711 13.5665ZM9.43572 14.1447C9.62307 14.151 9.80942 14.1596 9.99996 14.1596C10.1905 14.1596 10.3768 14.151 10.5642 14.1447C10.3751 14.3426 10.1882 14.5234 9.99996 14.6944C9.81171 14.5234 9.62477 14.3426 9.43572 14.1447Z"
        fill="#58C4DC" />
</svg>