<svg width="20" height="20" viewBox="0 0 20 20" fill="none" xmlns="http://www.w3.org/2000/svg">
    <path fill-rule="evenodd" clip-rule="evenodd"
        d="M9.99996 5.03003C7.77746 5.03003 6.38913 6.1342 5.83329 8.34336C6.66663 7.2392 7.63912 6.82503 8.74996 7.10086C9.38412 7.25836 9.83746 7.71586 10.3383 8.2217C11.1558 9.04586 12.1016 10 14.1666 10C16.3891 10 17.7775 8.89586 18.3333 6.6867C17.5 7.79086 16.5283 8.20503 15.4166 7.9292C14.7825 7.7717 14.3291 7.3142 13.8275 6.80836C13.0108 5.98336 12.0658 5.03003 9.99996 5.03003ZM5.83329 10C3.61079 10 2.22246 11.1042 1.66663 13.3134C2.49996 12.2084 3.47246 11.795 4.58329 12.0709C5.21746 12.2284 5.67079 12.6859 6.17246 13.1917C6.98913 14.0159 7.93496 14.97 10.0008 14.97C12.2233 14.97 13.6116 13.8659 14.1675 11.6567C13.3341 12.7609 12.3616 13.175 11.2508 12.8992C10.6166 12.7417 10.1633 12.2842 9.66246 11.7784C8.84412 10.9542 7.89829 10 5.83329 10Z"
        fill="#14B4C6" />
</svg>